<mxfile host="app.diagrams.net" modified="2024-01-16T15:27:15.766Z" agent="Mozilla/5.0 (Windows NT 10.0; Win64; x64) AppleWebKit/537.36 (KHTML, like Gecko) Chrome/119.0.0.0 Safari/537.36" etag="c0zOqbgB2Gh5lnsnVT2n" version="22.1.16" type="github">
  <diagram name="Page-1" id="90MO_YjmUW0pMVOKElTb">
    <mxGraphModel dx="985" dy="583" grid="1" gridSize="10" guides="1" tooltips="1" connect="1" arrows="1" fold="1" page="1" pageScale="1" pageWidth="827" pageHeight="1169" math="0" shadow="0">
      <root>
        <mxCell id="0" />
        <mxCell id="1" parent="0" />
        <mxCell id="I7iUblfnx8lxJgYY3LSX-1" value="Visual Ideas&lt;br&gt;- Metrics(Emails Received - Emails Extracted - Emails Processed - Percentage of received to processed)" style="rounded=0;whiteSpace=wrap;html=1;" vertex="1" parent="1">
          <mxGeometry x="40" y="40" width="760" height="110" as="geometry" />
        </mxCell>
      </root>
    </mxGraphModel>
  </diagram>
</mxfile>
